<svg width="73" height="72" viewBox="0 0 73 72" fill="none" xmlns="http://www.w3.org/2000/svg">
<path d="M0.5 10C0.5 4.47715 4.97715 0 10.5 0H62.5C68.0229 0 72.5 4.47715 72.5 10V62C72.5 67.5229 68.0229 72 62.5 72H10.5C4.97715 72 0.5 67.5229 0.5 62V10Z" fill="#A53AC4"/>
<path d="M47.75 23.625H25.25C24.6533 23.625 24.081 23.8621 23.659 24.284C23.2371 24.706 23 25.2783 23 25.875V32.625C23 33.2217 23.2371 33.794 23.659 34.216C24.081 34.6379 24.6533 34.875 25.25 34.875H47.75C48.3467 34.875 48.919 34.6379 49.341 34.216C49.7629 33.794 50 33.2217 50 32.625V25.875C50 25.2783 49.7629 24.706 49.341 24.284C48.919 23.8621 48.3467 23.625 47.75 23.625ZM43.8125 30.9375C43.4787 30.9375 43.1525 30.8385 42.875 30.6531C42.5975 30.4677 42.3812 30.2041 42.2535 29.8958C42.1257 29.5874 42.0923 29.2481 42.1574 28.9208C42.2225 28.5934 42.3833 28.2928 42.6193 28.0568C42.8553 27.8208 43.1559 27.66 43.4833 27.5949C43.8106 27.5298 44.1499 27.5632 44.4583 27.691C44.7666 27.8187 45.0302 28.035 45.2156 28.3125C45.401 28.59 45.5 28.9162 45.5 29.25C45.5 29.6976 45.3222 30.1268 45.0057 30.4432C44.6893 30.7597 44.2601 30.9375 43.8125 30.9375Z" fill="white"/>
<path d="M47.75 37.125H25.25C24.6533 37.125 24.081 37.3621 23.659 37.784C23.2371 38.206 23 38.7783 23 39.375V46.125C23 46.7217 23.2371 47.294 23.659 47.716C24.081 48.1379 24.6533 48.375 25.25 48.375H47.75C48.3467 48.375 48.919 48.1379 49.341 47.716C49.7629 47.294 50 46.7217 50 46.125V39.375C50 38.7783 49.7629 38.206 49.341 37.784C48.919 37.3621 48.3467 37.125 47.75 37.125ZM43.8125 44.4375C43.4787 44.4375 43.1525 44.3385 42.875 44.1531C42.5975 43.9677 42.3812 43.7041 42.2535 43.3958C42.1257 43.0874 42.0923 42.7481 42.1574 42.4208C42.2225 42.0934 42.3833 41.7928 42.6193 41.5568C42.8553 41.3208 43.1559 41.16 43.4833 41.0949C43.8106 41.0298 44.1499 41.0632 44.4583 41.191C44.7666 41.3187 45.0302 41.535 45.2156 41.8125C45.401 42.09 45.5 42.4162 45.5 42.75C45.5 43.1976 45.3222 43.6268 45.0057 43.9432C44.6893 44.2597 44.2601 44.4375 43.8125 44.4375Z" fill="white"/>
</svg>
